<?xml version="1.0" standalone="no"?>
<!DOCTYPE svg PUBLIC "-//W3C//DTD SVG 20010904//EN"
 "http://www.w3.org/TR/2001/REC-SVG-20010904/DTD/svg10.dtd">
<svg version="1.0" xmlns="http://www.w3.org/2000/svg"
 width="473.000000pt" height="80.000000pt" viewBox="0 0 473.000000 80.000000"
 preserveAspectRatio="xMidYMid meet">

<g transform="translate(0.000000,80.000000) scale(0.100000,-0.100000)"
fill="#000000" stroke="none">
<path d="M375 789 c-55 -13 -109 -59 -131 -114 -14 -32 -25 -45 -39 -45 -66 0
-150 -52 -179 -109 -40 -80 -24 -173 40 -237 24 -24 50 -44 59 -44 10 0 15
-10 15 -33 0 -54 46 -134 93 -162 80 -46 162 -42 235 12 36 27 66 78 58 99 -9
24 -30 15 -59 -27 -89 -129 -277 -65 -277 94 0 43 -2 46 -35 57 -69 23 -116
107 -100 180 15 67 93 124 162 120 47 -3 50 -1 57 40 13 80 99 141 180 126 46
-9 101 -57 116 -101 15 -45 50 -50 50 -7 0 61 -72 133 -150 151 -25 6 -47 10
-50 10 -3 -1 -23 -5 -45 -10z"/>
<path d="M2417 618 c-107 -29 -162 -172 -85 -222 13 -8 53 -22 90 -31 86 -22
103 -34 94 -68 -14 -56 -117 -77 -161 -32 -14 13 -25 29 -25 35 0 5 -18 10
-40 10 -39 0 -40 -1 -40 -35 0 -136 274 -137 339 -2 24 50 26 66 9 101 -11 26
-72 55 -148 71 -53 11 -70 23 -70 49 0 30 29 56 74 63 41 6 81 -14 91 -47 5
-16 15 -20 46 -20 37 0 39 2 39 31 0 45 -17 68 -63 90 -46 20 -91 22 -150 7z"/>
<path d="M1515 598 c-15 -64 -85 -402 -85 -410 0 -5 19 -8 42 -6 l42 3 19 93
20 92 98 0 c91 0 99 2 99 19 0 11 3 26 6 35 5 14 -6 16 -90 16 -105 0 -103 -1
-85 63 l10 37 108 0 c104 0 109 1 115 23 15 58 19 57 -144 57 -147 0 -150 0
-155 -22z"/>
<path d="M1882 406 c-67 -117 -122 -216 -122 -220 0 -3 19 -6 43 -6 41 0 44 2
65 45 l22 45 84 0 84 0 6 -45 7 -45 45 0 c31 0 44 4 44 14 0 14 -45 334 -55
394 -6 31 -8 32 -53 32 l-48 0 -122 -214z m162 7 l7 -73 -55 0 c-31 0 -56 4
-56 9 0 5 19 44 41 86 48 88 53 86 63 -22z"/>
<path d="M2726 603 c-2 -10 -7 -28 -11 -40 -6 -22 -4 -23 59 -23 36 0 66 -4
66 -9 0 -6 -16 -82 -35 -171 -19 -89 -35 -166 -35 -171 0 -6 19 -9 43 -7 l42
3 37 170 c20 94 37 173 37 178 1 4 30 7 65 7 69 0 64 -4 82 63 5 16 -8 17
-170 17 -158 0 -175 -2 -180 -17z"/>
<path d="M3155 608 c-8 -26 -85 -399 -85 -413 0 -11 11 -15 39 -15 44 0 43 -2
61 95 19 102 10 94 118 97 l96 3 7 33 6 32 -95 0 -95 0 7 42 c4 22 9 45 12 50
3 4 54 8 113 8 l109 0 6 31 c3 17 6 35 6 40 0 15 -300 11 -305 -3z"/>
<path d="M3550 613 c0 -5 -20 -102 -45 -218 -25 -115 -45 -211 -45 -212 0 -2
74 -3 164 -3 l164 0 6 31 c3 17 6 35 6 40 0 5 -54 9 -121 9 -110 0 -120 2
-115 18 3 9 8 34 12 55 l6 37 108 0 108 0 6 31 c3 17 6 35 6 40 0 5 -48 9
-106 9 -95 0 -105 2 -101 18 3 9 8 29 11 45 l6 27 116 0 c83 0 116 3 118 13 3
6 7 24 10 40 l6 27 -160 0 c-88 0 -160 -3 -160 -7z"/>
<path d="M3975 598 c-18 -79 -85 -402 -85 -409 0 -11 317 -12 323 -2 3 5 8 23
12 40 l7 33 -121 0 c-67 0 -121 2 -121 5 0 2 5 27 11 55 l11 50 103 0 c57 0
106 3 108 8 3 4 8 22 12 40 l7 32 -107 0 -106 0 7 38 c4 20 9 40 11 45 2 4 55
7 117 7 109 0 114 1 120 23 16 59 20 57 -149 57 -152 0 -155 0 -160 -22z"/>
<path d="M4366 603 c-2 -10 -7 -28 -11 -40 -6 -22 -4 -23 59 -23 36 0 66 -4
66 -9 0 -6 -16 -82 -35 -171 -19 -89 -35 -166 -35 -171 0 -6 19 -9 43 -7 l42
3 37 170 c20 94 37 173 37 178 1 4 30 7 65 7 69 0 64 -4 82 63 5 16 -8 17
-170 17 -158 0 -175 -2 -180 -17z"/>
<path d="M277 523 c-4 -3 -7 -12 -7 -20 0 -11 75 -13 411 -13 386 0 410 1 407
18 -3 16 -31 17 -404 20 -220 1 -403 -1 -407 -5z"/>
<path d="M470 375 c0 -13 49 -15 380 -15 331 0 380 2 380 15 0 13 -49 15 -380
15 -331 0 -380 -2 -380 -15z"/>
<path d="M352 243 c3 -17 30 -18 408 -18 378 0 405 1 408 18 3 16 -22 17 -408
17 -386 0 -411 -1 -408 -17z"/>
</g>
</svg>
